# xmcd
#
# Track frame offsets: 
#        182
#        15455
#        32737
#        53687
#        71980
#        97470
#        111845
#        125362
#        135150
#        146455
#        164062
#        179400
#        196837
#        216150
#        240187
#
# Disc length: 3432 seconds
#
# Revision: 6
# Processed by: cddbd v1.5.2PL0 Copyright (c) Steve Scherf et al.
# Submitted via: ExactAudioCopy v0.99pb5
#
DISCID=d50d660f
DTITLE=Louis Armstrong - Greatest Hits
DYEAR=1989
DGENRE=Jazz
TTITLE0=A Theme From The Threepenny Opera
TTITLE1=Back O'Town Blues
TTITLE2=(What Did I Do To Be So) Black And Blue
TTITLE3=Ain't Misbehavin'
TTITLE4=Basin Street Blues
TTITLE5=Cabaret
TTITLE6=Canal Street Blues
TTITLE7=When The Red, Red Robin Comes Bob, Bob Bobbin' Along
TTITLE8=Six Foot Four
TTITLE9=Mahogany Hall Stomp
TTITLE10=When It's Sleepy Time Down South
TTITLE11=All Of Me
TTITLE12=West End Blues
TTITLE13=Struttin' With Some Barbecue
TTITLE14=Indiana
EXTD=
EXTT0=
EXTT1=
EXTT2=
EXTT3=
EXTT4=
EXTT5=
EXTT6=
EXTT7=
EXTT8=
EXTT9=
EXTT10=
EXTT11=
EXTT12=
EXTT13=
EXTT14=
PLAYORDER=
